<svg xmlns="http://www.w3.org/2000/svg" width="16" height="16" fill="none" viewBox="0 0 16 16">
  <g clip-path="url(#a)">
    <path fill="currentColor" d="m8 0 3.293 3.293a1 1 0 0 1 0 1.414l-1.96 1.96L8 5.333A3.771 3.771 0 0 1 8 0Z"/>
    <path fill="currentColor" fill-rule="evenodd" d="m8 16-5.334-5.333a3.771 3.771 0 0 1 0-5.334L7.293 9.96a1 1 0 0 0 1.414 0l4.626-4.627a3.771 3.771 0 0 1 0 5.334L8 16Z" clip-rule="evenodd"/>
  </g>
  <defs>
    <clipPath id="a">
      <path fill="#fff" d="M0 0h16v16H0z"/>
    </clipPath>
  </defs>
</svg>
